<svg id="Шар_1" data-name="Шар 1" xmlns="http://www.w3.org/2000/svg" viewBox="0 0 50 16.5"><defs><style>.cls-1{fill:#00c68d;}.cls-1,.cls-2,.cls-3{stroke:#000;stroke-miterlimit:10;stroke-width:0.5px;}.cls-2{fill:#efdc33;}.cls-3{fill:#37825b;}.cls-4{opacity:0.2;}.cls-5{opacity:0.5;}</style></defs><path class="cls-1" d="M.25,15.34"/><path class="cls-2" d="M.25.25V15.58L4,16.25H8.54l3.71-.67V.25Z"/><line class="cls-3" x1="3.88" y1="15.32" x2="8.62" y2="15.32"/><line class="cls-3" x1="3.88" y1="14.32" x2="8.62" y2="14.32"/><line class="cls-3" x1="3.88" y1="13.37" x2="8.62" y2="13.37"/><rect class="cls-4" x="10" y="0.48" width="2" height="0.81"/><rect class="cls-5" x="10" y="1.29" width="2" height="0.81"/><rect class="cls-4" x="10" y="2.11" width="2" height="0.81"/><rect class="cls-5" x="10" y="2.92" width="2" height="0.81"/><rect class="cls-4" x="10" y="3.74" width="2" height="0.81"/><rect class="cls-5" x="10" y="4.55" width="2" height="0.81"/><rect class="cls-4" x="10" y="5.37" width="2" height="0.81"/><rect class="cls-5" x="10" y="6.18" width="2" height="0.81"/><rect class="cls-4" x="10" y="7" width="2" height="0.81"/><rect class="cls-5" x="10" y="7.81" width="2" height="0.81"/><rect class="cls-4" x="10" y="8.63" width="2" height="0.81"/><rect class="cls-5" x="10" y="9.44" width="2" height="0.81"/><rect class="cls-4" x="10" y="10.25" width="2" height="0.81"/><rect class="cls-5" x="10" y="11.07" width="2" height="0.81"/><rect class="cls-4" x="10" y="11.88" width="2" height="0.81"/><rect class="cls-5" x="10" y="12.7" width="2" height="0.81"/><rect class="cls-4" x="10" y="13.51" width="2" height="0.81"/><rect class="cls-5" x="10" y="14.33" width="2" height="0.81"/><rect class="cls-4" x="10" y="15.14" width="2" height="0.57"/><rect class="cls-4" x="0.48" y="0.48" width="2" height="0.81"/><rect class="cls-5" x="0.48" y="1.29" width="2" height="0.81"/><rect class="cls-4" x="0.48" y="2.11" width="2" height="0.81"/><rect class="cls-5" x="0.48" y="2.92" width="2" height="0.81"/><rect class="cls-4" x="0.48" y="3.74" width="2" height="0.81"/><rect class="cls-5" x="0.48" y="4.55" width="2" height="0.81"/><rect class="cls-4" x="0.48" y="5.37" width="2" height="0.81"/><rect class="cls-5" x="0.48" y="6.18" width="2" height="0.81"/><rect class="cls-4" x="0.48" y="7" width="2" height="0.81"/><rect class="cls-5" x="0.48" y="7.81" width="2" height="0.81"/><rect class="cls-4" x="0.48" y="8.63" width="2" height="0.81"/><rect class="cls-5" x="0.48" y="9.44" width="2" height="0.81"/><rect class="cls-4" x="0.48" y="10.25" width="2" height="0.81"/><rect class="cls-5" x="0.48" y="11.07" width="2" height="0.81"/><rect class="cls-4" x="0.48" y="11.88" width="2" height="0.81"/><rect class="cls-5" x="0.48" y="12.7" width="2" height="0.81"/><rect class="cls-4" x="0.48" y="13.51" width="2" height="0.81"/><rect class="cls-5" x="0.48" y="14.33" width="2" height="0.81"/><rect class="cls-4" x="0.48" y="15.14" width="2" height="0.57"/><path class="cls-2" d="M12.75.25V15.58l3.73.67H21l3.71-.67V.25Z"/><line class="cls-3" x1="16.38" y1="15.32" x2="21.12" y2="15.32"/><line class="cls-3" x1="16.38" y1="14.32" x2="21.12" y2="14.32"/><line class="cls-3" x1="16.38" y1="13.37" x2="21.12" y2="13.37"/><rect class="cls-4" x="22.5" y="0.25" width="2" height="0.61"/><rect class="cls-5" x="22.5" y="0.86" width="2" height="0.81"/><rect class="cls-4" x="22.5" y="1.68" width="2" height="0.81"/><rect class="cls-5" x="22.5" y="2.49" width="2" height="0.81"/><rect class="cls-4" x="22.5" y="3.31" width="2" height="0.81"/><rect class="cls-5" x="22.5" y="4.12" width="2" height="0.81"/><rect class="cls-4" x="22.5" y="4.94" width="2" height="0.81"/><rect class="cls-5" x="22.5" y="5.75" width="2" height="0.81"/><rect class="cls-4" x="22.5" y="6.56" width="2" height="0.81"/><rect class="cls-5" x="22.5" y="7.38" width="2" height="0.81"/><rect class="cls-4" x="22.5" y="8.19" width="2" height="0.81"/><rect class="cls-5" x="22.5" y="9.01" width="2" height="0.81"/><rect class="cls-4" x="22.5" y="9.82" width="2" height="0.81"/><rect class="cls-5" x="22.5" y="10.64" width="2" height="0.81"/><rect class="cls-4" x="22.5" y="11.45" width="2" height="0.81"/><rect class="cls-5" x="22.5" y="12.27" width="2" height="0.81"/><rect class="cls-4" x="22.5" y="13.08" width="2" height="0.81"/><rect class="cls-5" x="22.5" y="13.9" width="2" height="0.81"/><rect class="cls-4" x="22.5" y="14.7" width="2" height="0.81"/><rect class="cls-5" x="22.5" y="15.51" width="2" height="0.21"/><rect class="cls-4" x="12.99" y="0.25" width="2" height="0.59"/><rect class="cls-5" x="12.99" y="0.84" width="2" height="0.81"/><rect class="cls-4" x="12.99" y="1.66" width="2" height="0.81"/><rect class="cls-5" x="12.99" y="2.47" width="2" height="0.81"/><rect class="cls-4" x="12.99" y="3.28" width="2" height="0.81"/><rect class="cls-5" x="12.99" y="4.1" width="2" height="0.81"/><rect class="cls-4" x="12.99" y="4.91" width="2" height="0.81"/><rect class="cls-5" x="12.99" y="5.73" width="2" height="0.81"/><rect class="cls-4" x="12.99" y="6.54" width="2" height="0.81"/><rect class="cls-5" x="12.99" y="7.36" width="2" height="0.81"/><rect class="cls-4" x="12.99" y="8.17" width="2" height="0.81"/><rect class="cls-5" x="12.99" y="8.99" width="2" height="0.81"/><rect class="cls-4" x="12.99" y="9.8" width="2" height="0.81"/><rect class="cls-5" x="12.99" y="10.62" width="2" height="0.81"/><rect class="cls-4" x="12.99" y="11.43" width="2" height="0.81"/><rect class="cls-5" x="12.99" y="12.24" width="2" height="0.81"/><rect class="cls-4" x="12.99" y="13.06" width="2" height="0.81"/><rect class="cls-5" x="12.99" y="13.87" width="2" height="0.81"/><rect class="cls-4" x="12.99" y="14.68" width="2" height="0.81"/><rect class="cls-5" x="12.99" y="15.49" width="2" height="0.21"/><path class="cls-2" d="M25.25.25V15.58l3.73.67h4.56l3.71-.67V.25Z"/><line class="cls-3" x1="28.88" y1="15.32" x2="33.62" y2="15.32"/><line class="cls-3" x1="28.88" y1="14.32" x2="33.62" y2="14.32"/><line class="cls-3" x1="28.88" y1="13.37" x2="33.62" y2="13.37"/><rect class="cls-5" x="35" y="0.48" width="2" height="0.81"/><rect class="cls-4" x="35" y="1.29" width="2" height="0.81"/><rect class="cls-5" x="35" y="2.11" width="2" height="0.81"/><rect class="cls-4" x="35" y="2.92" width="2" height="0.81"/><rect class="cls-5" x="35" y="3.74" width="2" height="0.81"/><rect class="cls-4" x="35" y="4.55" width="2" height="0.81"/><rect class="cls-5" x="35" y="5.37" width="2" height="0.81"/><rect class="cls-4" x="35" y="6.18" width="2" height="0.81"/><rect class="cls-5" x="35" y="7" width="2" height="0.81"/><rect class="cls-4" x="35" y="7.81" width="2" height="0.81"/><rect class="cls-5" x="35" y="8.63" width="2" height="0.81"/><rect class="cls-4" x="35" y="9.44" width="2" height="0.81"/><rect class="cls-5" x="35" y="10.25" width="2" height="0.81"/><rect class="cls-4" x="35" y="11.07" width="2" height="0.81"/><rect class="cls-5" x="35" y="11.88" width="2" height="0.81"/><rect class="cls-4" x="35" y="12.7" width="2" height="0.81"/><rect class="cls-5" x="35" y="13.51" width="2" height="0.81"/><rect class="cls-4" x="35" y="14.33" width="2" height="0.81"/><rect class="cls-5" x="35" y="15.14" width="2" height="0.57"/><rect class="cls-5" x="25.48" y="0.48" width="2" height="0.81"/><rect class="cls-4" x="25.48" y="1.29" width="2" height="0.81"/><rect class="cls-5" x="25.48" y="2.11" width="2" height="0.81"/><rect class="cls-4" x="25.48" y="2.92" width="2" height="0.81"/><rect class="cls-5" x="25.48" y="3.74" width="2" height="0.81"/><rect class="cls-4" x="25.48" y="4.55" width="2" height="0.81"/><rect class="cls-5" x="25.48" y="5.37" width="2" height="0.81"/><rect class="cls-4" x="25.48" y="6.18" width="2" height="0.81"/><rect class="cls-5" x="25.48" y="7" width="2" height="0.81"/><rect class="cls-4" x="25.48" y="7.81" width="2" height="0.81"/><rect class="cls-5" x="25.48" y="8.63" width="2" height="0.81"/><rect class="cls-4" x="25.48" y="9.44" width="2" height="0.81"/><rect class="cls-5" x="25.48" y="10.25" width="2" height="0.81"/><rect class="cls-4" x="25.48" y="11.07" width="2" height="0.81"/><rect class="cls-5" x="25.48" y="11.88" width="2" height="0.81"/><rect class="cls-4" x="25.48" y="12.7" width="2" height="0.81"/><rect class="cls-5" x="25.48" y="13.51" width="2" height="0.81"/><rect class="cls-4" x="25.48" y="14.33" width="2" height="0.81"/><rect class="cls-5" x="25.48" y="15.14" width="2" height="0.57"/><path class="cls-2" d="M37.75.25V15.58l3.73.67H46l3.71-.67V.25Z"/><line class="cls-3" x1="41.38" y1="15.32" x2="46.12" y2="15.32"/><line class="cls-3" x1="41.38" y1="14.32" x2="46.12" y2="14.32"/><line class="cls-3" x1="41.38" y1="13.37" x2="46.12" y2="13.37"/><rect class="cls-5" x="47.5" y="0.25" width="2" height="0.61"/><rect class="cls-4" x="47.5" y="0.86" width="2" height="0.81"/><rect class="cls-5" x="47.5" y="1.68" width="2" height="0.81"/><rect class="cls-4" x="47.5" y="2.49" width="2" height="0.81"/><rect class="cls-5" x="47.5" y="3.31" width="2" height="0.81"/><rect class="cls-4" x="47.5" y="4.12" width="2" height="0.81"/><rect class="cls-5" x="47.5" y="4.94" width="2" height="0.81"/><rect class="cls-4" x="47.5" y="5.75" width="2" height="0.81"/><rect class="cls-5" x="47.5" y="6.56" width="2" height="0.81"/><rect class="cls-4" x="47.5" y="7.38" width="2" height="0.81"/><rect class="cls-5" x="47.5" y="8.19" width="2" height="0.81"/><rect class="cls-4" x="47.5" y="9.01" width="2" height="0.81"/><rect class="cls-5" x="47.5" y="9.82" width="2" height="0.81"/><rect class="cls-4" x="47.5" y="10.64" width="2" height="0.81"/><rect class="cls-5" x="47.5" y="11.45" width="2" height="0.81"/><rect class="cls-4" x="47.5" y="12.27" width="2" height="0.81"/><rect class="cls-5" x="47.5" y="13.08" width="2" height="0.81"/><rect class="cls-4" x="47.5" y="13.9" width="2" height="0.81"/><rect class="cls-5" x="47.5" y="14.7" width="2" height="0.81"/><rect class="cls-4" x="47.5" y="15.51" width="2" height="0.21"/><rect class="cls-5" x="37.99" y="0.29" width="2" height="0.55"/><rect class="cls-4" x="37.99" y="0.84" width="2" height="0.81"/><rect class="cls-5" x="37.99" y="1.66" width="2" height="0.81"/><rect class="cls-4" x="37.99" y="2.47" width="2" height="0.81"/><rect class="cls-5" x="37.99" y="3.28" width="2" height="0.81"/><rect class="cls-4" x="37.99" y="4.1" width="2" height="0.81"/><rect class="cls-5" x="37.99" y="4.91" width="2" height="0.81"/><rect class="cls-4" x="37.99" y="5.73" width="2" height="0.81"/><rect class="cls-5" x="37.99" y="6.54" width="2" height="0.81"/><rect class="cls-4" x="37.99" y="7.36" width="2" height="0.81"/><rect class="cls-5" x="37.99" y="8.17" width="2" height="0.81"/><rect class="cls-4" x="37.99" y="8.99" width="2" height="0.81"/><rect class="cls-5" x="37.99" y="9.8" width="2" height="0.81"/><rect class="cls-4" x="37.99" y="10.62" width="2" height="0.81"/><rect class="cls-5" x="37.99" y="11.43" width="2" height="0.81"/><rect class="cls-4" x="37.99" y="12.24" width="2" height="0.81"/><rect class="cls-5" x="37.99" y="13.06" width="2" height="0.81"/><rect class="cls-4" x="37.99" y="13.87" width="2" height="0.81"/><rect class="cls-5" x="37.99" y="14.68" width="2" height="0.81"/><rect class="cls-4" x="37.99" y="15.49" width="2" height="0.21"/></svg>